<svg xmlns="http://www.w3.org/2000/svg" fill="none" viewBox="0 0 382 91"><path fill="#000" d="M98.06 28.9c-3.07-6.44-8.89-10.6-17.66-10.6a17.58 17.58 0 00-13.81 7.1l-.32.39V.55a.55.55 0 00-.55-.55h-12.4a.55.55 0 00-.54.55v72.4a.54.54 0 00.54.54H66.6a.55.55 0 00.55-.54V42.08c0-6 4-10.25 10.4-10.25 7 0 8.77 5.76 8.77 11.63v29.49a.54.54 0 00.54.54h13.25a.552.552 0 00.55-.54V41.7c0-1.07 0-2.12-.14-3.14a27.617 27.617 0 00-2.46-9.66zM31.75 39.63s-6.76-1.59-9.25-2.23c-2.49-.64-6.84-2-6.84-5.29s3.51-4.34 7.07-4.34c3.56 0 7.52.86 7.83 4.81a.57.57 0 00.57.52l13.09-.05a.56.56 0 00.56-.6c-.81-12.64-11.9-17.16-22.13-17.16-12.13 0-21 8-21 16.82 0 6.44 1.82 12.48 16.13 16.68 2.51.73 5.92 1.68 8.9 2.51 3.58 1 5.51 2.51 5.51 4.89 0 2.76-4 4.68-7.93 4.68-5.69 0-9.73-2.11-10.06-5.9a.57.57 0 00-.57-.5l-13.06.06a.57.57 0 00-.57.59c.6 11.93 12.12 18.36 22.86 18.36 16 0 23.23-9 23.23-17.43.02-3.96-.89-12.98-14.34-16.42zM200.15 18.28c-6.65 0-12.22 3.68-15.81 8.12v-7.6a.54.54 0 00-.53-.54h-12.42a.542.542 0 00-.54.54v71a.542.542 0 00.54.53h13.29a.529.529 0 00.53-.53V66.46h.2c2.11 3.22 7.88 7.08 15.42 7.08 14.18 0 26-11.76 26-27.65.01-15.25-11.75-27.61-26.68-27.61zm-1.23 41.73a14.09 14.09 0 1113.74-14.12 13.892 13.892 0 01-3.936 9.915 13.907 13.907 0 01-9.804 4.205zM131.52 15.16c-12.39 0-18.57 4.21-23.53 7.58l-.15.1a1.234 1.234 0 00-.37 1.63l4.9 8.44a1.247 1.247 0 001.401.577c.173-.046.333-.13.469-.247l.39-.32c2.55-2.14 6.64-5 16.54-5.78 5.51-.44 10.27 1 13.78 4.28 3.86 3.56 6.17 9.31 6.17 15.38 0 11.17-6.58 18.19-17.15 18.33-8.71-.05-14.56-4.59-14.56-11.3 0-3.56 1.61-5.88 4.75-8.2a1.22 1.22 0 00.37-1.56l-4.4-8.32a1.287 1.287 0 00-1.283-.661c-.173.022-.338.08-.487.171-4.94 2.93-11 8.29-10.67 18.59.4 13.11 11.3 23.12 25.47 23.53h1.68c16.84-.55 29-13.05 29-30 0-15.56-11.34-32.22-32.32-32.22zM279.2 23.16h-8.44a.759.759 0 00-.75.75v17.71a.75.75 0 00.75.74h8.44c5.14 0 8.93-4.05 8.93-9.6s-3.79-9.6-8.93-9.6zM305.13 54.49c0 2.57 2.17 4 5.95 4 5.14 0 8.18-2.78 8.18-7.71v-1.42l-7.7.4c-4.06.2-6.43 1.89-6.43 4.73z"/><path fill="#000" d="M367.63.16h-113.4a14.162 14.162 0 00-14.16 14.17v62.08a14.171 14.171 0 0014.16 14.17h113.4a14.173 14.173 0 0013.122-8.724 14.154 14.154 0 001.088-5.426V14.35A14.158 14.158 0 00367.63.16zm-88 49.17h-8.92a.75.75 0 00-.75.75v12.7a.752.752 0 01-.75.75h-6.28a.759.759 0 01-.75-.75V16.97a.749.749 0 01.75-.75h16.7c9.46 0 16.23 6.89 16.23 16.56 0 9.67-6.72 16.57-16.18 16.57l-.05-.02zm47 13.44a.74.74 0 01-.216.537.757.757 0 01-.534.223h-5.93a.751.751 0 01-.75-.76V61.4a.559.559 0 00-1-.39c-1.77 1.93-4.65 3.33-9.24 3.33-6.76 0-11.23-3.52-11.23-9.6a8.908 8.908 0 013.72-7.64c2.44-1.83 6.22-2.78 11.83-3l5.95-.2v-1.74c0-3.51-2.36-5-6.15-5-3.79 0-6.18 1.34-6.74 3.53a.72.72 0 01-.72.52h-5.87a.737.737 0 01-.728-.53.75.75 0 01-.022-.32c.88-5.2 5.18-9.15 14.35-9.15 9.74 0 13.25 4.53 13.25 13.18l.03 18.38zm36.94-29.72l-13.2 35.21c-3 8.18-8.25 10.28-14 10.28a11.173 11.173 0 01-3.21-.39.77.77 0 01-.57-.74v-5.35a.77.77 0 01.274-.587.756.756 0 01.626-.163 14.85 14.85 0 002.75.26 7.11 7.11 0 007.17-5.07l.39-1.23a.734.734 0 000-.51l-12.34-31.7a.764.764 0 01.368-.913.76.76 0 01.342-.087h6a.768.768 0 01.71.49l8.38 22.36a.772.772 0 001.158.36.77.77 0 00.282-.36l7.27-22.3a.753.753 0 01.72-.52h6.15a.765.765 0 01.612.306.754.754 0 01.118.674v-.02z"/></svg>